<svg width="24" height="24" viewBox="0 0 24 24" fill="none" xmlns="http://www.w3.org/2000/svg">
<path fill-rule="evenodd" clip-rule="evenodd" d="M16.1164 5.5H7.88474C6.57101 5.5 5.50195 6.56899 5.50195 7.88279V16.1144C5.50195 17.4284 6.57101 18.4974 7.88474 18.4974H16.1164C17.4303 18.4974 18.4994 17.4284 18.4994 16.1144V7.88279C18.4994 6.56905 17.4303 5.5 16.1164 5.5ZM12.0004 16.2773C9.64136 16.2773 7.72182 14.3578 7.72182 11.9985C7.72182 9.63941 9.64136 7.71987 12.0004 7.71987C14.3597 7.71987 16.2793 9.63941 16.2793 11.9985C16.2793 14.3578 14.3597 16.2773 12.0004 16.2773ZM16.4169 8.60464C15.8584 8.60464 15.4043 8.15048 15.4043 7.59229C15.4043 7.03402 15.8584 6.57987 16.4169 6.57987C16.9751 6.57987 17.4293 7.03402 17.4293 7.59229C17.4293 8.15055 16.9751 8.60464 16.4169 8.60464Z" fill="white" fill-opacity="0.7"/>
<path fill-rule="evenodd" clip-rule="evenodd" d="M12.0002 9.53125C10.6383 9.53125 9.5293 10.6397 9.5293 12.0016C9.5293 13.364 10.6383 14.4727 12.0002 14.4727C13.3626 14.4727 14.4708 13.364 14.4708 12.0016C14.4708 10.6397 13.3626 9.53125 12.0002 9.53125Z" fill="white" fill-opacity="0.7"/>
<path fill-rule="evenodd" clip-rule="evenodd" d="M3 0C1.34315 0 0 1.34315 0 3V21C0 22.6569 1.34315 24 3 24H21C22.6569 24 24 22.6569 24 21V3C24 1.34315 22.6569 0 21 0H3ZM20.3066 16.1158C20.3066 18.427 18.427 20.3066 16.1159 20.3066H7.8842C5.57328 20.3066 3.69336 18.427 3.69336 16.1158V7.8842C3.69336 5.57328 5.57328 3.69336 7.8842 3.69336H16.1159C18.427 3.69336 20.3066 5.57328 20.3066 7.8842V16.1158Z" fill="white" fill-opacity="0.7"/>
</svg>
