<svg width="24" height="24" viewBox="0 0 24 24" fill="none" xmlns="http://www.w3.org/2000/svg">
<path fill-rule="evenodd" clip-rule="evenodd" d="M3 0C1.34315 0 0 1.34315 0 3V21C0 22.6569 1.34315 24 3 24H21C22.6569 24 24 22.6569 24 21V3C24 1.34315 22.6569 0 21 0H3ZM19.5642 16.0999C19.5697 16.1106 19.5738 16.1186 19.5768 16.124C20.0879 17.0319 19.0097 17.1031 19.0097 17.1031L16.9489 17.1341C16.9489 17.1341 16.5063 17.2281 15.9238 16.7995C15.6192 16.5753 15.3214 16.2096 15.0376 15.8612C14.6036 15.3282 14.2024 14.8355 13.8601 14.9517C13.2853 15.1469 13.3036 16.4721 13.3036 16.4721C13.3036 16.4721 13.3084 16.7551 13.1773 16.9059C13.0355 17.0701 12.7568 17.1031 12.7568 17.1031H11.8349C11.8349 17.1031 9.80012 17.2343 8.00738 15.2357C6.0536 13.0553 4.3274 8.73071 4.3274 8.73071C4.3274 8.73071 4.22807 8.44771 4.33608 8.31034C4.45758 8.15644 4.78836 8.14611 4.78836 8.14611L6.99288 8.13165C6.99288 8.13165 7.20118 8.16883 7.34969 8.28555C7.47216 8.38161 7.54063 8.56133 7.54063 8.56133C7.54063 8.56133 7.89744 9.52706 8.36901 10.3998C9.28998 12.1051 9.71911 12.478 10.0325 12.2951C10.4887 12.0287 10.3517 9.88546 10.3517 9.88546C10.3517 9.88546 10.3604 9.10668 10.1222 8.76067C9.93802 8.49212 9.59085 8.41362 9.43752 8.39193C9.31312 8.37438 9.5166 8.06555 9.78083 7.92714C10.1772 7.71954 10.8783 7.70714 11.7057 7.71644C12.3508 7.72367 12.536 7.76705 12.7887 7.83212C13.3739 7.98326 13.3557 8.46828 13.3164 9.51507C13.3047 9.82748 13.2911 10.1899 13.2911 10.6085C13.2911 10.7029 13.2885 10.8036 13.2858 10.9072C13.2721 11.4428 13.2564 12.0562 13.5852 12.2838C13.754 12.4005 14.1677 12.3013 15.2005 10.4226C15.6904 9.53222 16.0578 8.48489 16.0578 8.48489C16.0578 8.48489 16.1379 8.29898 16.2623 8.21841C16.3905 8.13682 16.5622 8.1616 16.5622 8.1616L18.8805 8.14714C18.8805 8.14714 19.5777 8.05832 19.6906 8.39503C19.8092 8.74827 19.4302 9.57457 18.4822 10.9276C17.5787 12.2173 17.1412 12.688 17.1859 13.1074C17.2182 13.4104 17.5023 13.6866 18.0444 14.2256C19.1903 15.3646 19.4935 15.9607 19.5642 16.0999Z" fill="white" fill-opacity="0.7"/>
</svg>
