<svg width="140" height="38" viewBox="0 0 140 38" fill="none" xmlns="http://www.w3.org/2000/svg">
<path fill-rule="evenodd" clip-rule="evenodd" d="M26.1912 0.0564897C25.5667 -0.15059 24.9132 0.232133 24.7435 0.870079C24.5734 1.50934 24.9541 2.16202 25.5781 2.37459C28.8462 3.48891 31.7221 5.54761 33.8345 8.30317C36.1899 11.3755 37.4638 15.1414 37.4576 19.0139C37.4515 22.8867 36.1656 26.6484 33.8003 29.7133C31.6791 32.462 28.7967 34.5117 25.5249 35.6152C24.9003 35.8261 24.5175 36.4774 24.6857 37.1173C24.8532 37.7557 25.5057 38.1406 26.1308 37.9355C29.9135 36.6944 33.2479 34.3437 35.6925 31.176C38.3803 27.6932 39.8416 23.4184 39.8486 19.0179C39.8556 14.6171 38.4079 10.3377 35.7314 6.84636C33.297 3.67093 29.97 1.30952 26.1912 0.0564897ZM13.7477 37.9452C14.373 38.1492 15.0248 37.7632 15.1914 37.1246C15.3583 36.4844 14.9747 35.8338 14.3496 35.624C11.0763 34.5253 8.19054 32.4803 6.06498 29.735C3.69486 26.6739 2.40328 22.9141 2.3908 19.0416C2.37854 15.1689 3.64647 11.401 5.99711 8.32494C8.10515 5.56608 10.978 3.50276 14.2443 2.38339C14.8678 2.16971 15.2475 1.5166 15.0765 0.877553C14.9057 0.239827 14.2517 -0.142016 13.6275 0.0661621C9.85061 1.32535 6.5274 3.69181 4.09795 6.87121C1.42699 10.3667 -0.0139115 14.6483 0.000101246 19.0491C0.013895 23.4499 1.48195 27.7223 4.17502 31.2008C6.62462 34.3646 9.96271 36.71 13.7477 37.9452ZM9.84294 8.89583C9.42497 8.47728 8.74535 8.47508 8.35738 8.92177C6.39735 11.1783 5.13357 13.966 4.73399 16.9451C4.2869 20.2786 4.94703 23.6668 6.61257 26.5884C8.27812 29.5097 10.8569 31.8021 13.9517 33.1129C16.7168 34.284 19.7569 34.6133 22.6948 34.0729C23.2765 33.9659 23.6212 33.3756 23.4734 32.8008C23.326 32.227 22.7441 31.886 22.1623 31.9863C19.681 32.4143 17.1206 32.123 14.7879 31.1351C12.1264 30.0078 9.90863 28.0364 8.47626 25.524C7.0439 23.0115 6.47617 20.0977 6.86064 17.2307C7.19717 14.7209 8.24724 12.3687 9.87491 10.4494C10.2592 9.99608 10.2629 9.31593 9.84294 8.89583ZM31.4911 29.0498C31.1031 29.4965 30.4235 29.4941 30.0055 29.0758C29.5856 28.6554 29.5893 27.9753 29.9735 27.522C31.6012 25.6027 32.6513 23.2505 32.9878 20.7407C33.3723 17.8739 32.8045 14.9598 31.3722 12.4474C29.9398 9.93519 27.7221 7.96354 25.0605 6.83625C22.7279 5.84834 20.1675 5.55706 17.6861 5.98507C17.1044 6.08531 16.5224 5.74436 16.3751 5.1706C16.2273 4.59575 16.5719 4.00573 17.1536 3.89867C20.0915 3.35811 23.1316 3.68741 25.8967 4.85845C28.9915 6.16929 31.5703 8.46167 33.2359 11.3832C34.9014 14.3045 35.5615 17.6928 35.1144 21.0265C34.7149 24.0054 33.4511 26.793 31.4911 29.0498ZM9.94344 16.7319C9.33848 16.587 8.72477 16.9614 8.64091 17.5802C8.36241 19.638 8.65558 21.7407 9.49941 23.6537C10.4958 25.9126 12.205 27.7821 14.3647 28.9755C16.5246 30.169 19.0158 30.6205 21.4566 30.2609C23.5231 29.9566 25.4566 29.085 27.0477 27.7535C27.5266 27.3527 27.5152 26.6301 27.0687 26.1933C26.6245 25.7585 25.9173 25.7732 25.4312 26.1604C24.1917 27.1474 22.7084 27.7948 21.1282 28.0276C19.1756 28.3154 17.1828 27.954 15.4548 26.9992C13.7271 26.0445 12.3598 24.549 11.5628 22.742C10.9189 21.2821 10.6756 19.684 10.8481 18.1109C10.9162 17.489 10.5499 16.877 9.94344 16.7319ZM30.9886 20.6106C30.9047 21.2294 30.291 21.604 29.6861 21.4589C29.0796 21.3138 28.7133 20.702 28.7814 20.0799C28.9515 18.5283 28.7174 16.9519 28.0925 15.5079C27.317 13.7154 25.9814 12.2227 24.2866 11.2544C22.5917 10.286 20.6286 9.89408 18.6922 10.1372C17.1291 10.3333 15.6512 10.935 14.4015 11.8734C13.9044 12.2465 13.1972 12.241 12.7655 11.7936C12.3317 11.3443 12.3409 10.6217 12.8307 10.2348C14.4378 8.96596 16.3663 8.15413 18.4115 7.89737C20.8322 7.59356 23.286 8.08357 25.4047 9.29395C27.5235 10.5045 29.1928 12.37 30.1623 14.6107C30.9814 16.5046 31.2634 18.5798 30.9886 20.6106Z" fill="white"/>
<path fill-rule="evenodd" clip-rule="evenodd" d="M54.029 13.4361C54.029 12.8206 53.5318 12.3215 52.9187 12.3215C52.3053 12.3215 51.8084 12.8206 51.8084 13.4361V21.7318C51.8084 22.7174 51.8084 23.0457 51.6151 23.4903C51.3254 24.128 50.6302 24.4759 50.0125 24.4759C49.6262 24.4759 49.2398 24.3404 48.931 24.1087C48.8525 24.0509 48.7777 23.9868 48.7075 23.9173C48.2792 23.494 47.6939 23.0863 47.1099 23.2285C46.5227 23.3714 46.1615 23.9861 46.4657 24.5102C46.815 25.1119 47.3092 25.6297 47.9269 25.9829C48.5447 26.3694 49.2786 26.5239 50.0125 26.5239C51.6346 26.5239 52.7545 25.8669 53.5076 24.5916C54.029 23.6256 54.029 23.0457 54.029 21.7318V13.4361Z" fill="white"/>
<path fill-rule="evenodd" clip-rule="evenodd" d="M68.7455 12.3215C69.3533 12.3215 69.8462 12.8163 69.8462 13.4264V21.0942C69.8462 22.3502 69.4215 23.5674 68.6296 24.553C67.6061 25.8669 65.984 26.5239 64.2848 26.5239C62.6047 26.5239 60.9634 25.8477 59.9399 24.553C59.1676 23.6063 58.7041 22.2924 58.7041 21.0942V13.4361C58.7041 12.8296 59.1911 12.3365 59.7952 12.3312C60.4066 12.3259 60.9055 12.822 60.9055 13.4361V20.8237C60.9055 21.7318 61.0598 22.4469 61.6007 23.2006C62.2379 24.012 63.2612 24.4759 64.2848 24.4759C65.3083 24.4759 66.3124 24.012 66.9496 23.181C67.5097 22.4469 67.6448 21.7511 67.6448 20.8237V13.4264C67.6448 12.8163 68.1377 12.3215 68.7455 12.3215Z" fill="white"/>
<path fill-rule="evenodd" clip-rule="evenodd" d="M84.0214 16.1433C84.6842 15.9629 85.0556 15.2391 84.6951 14.6523C84.182 13.8165 83.503 13.1423 82.691 12.6954C81.8028 12.1929 80.76 12.0192 79.7944 11.9999C78.8675 11.9999 77.9022 12.0962 76.9365 12.5601C75.72 13.1204 74.7931 14.3957 74.7931 15.8256C74.7931 16.7534 75.1407 17.7583 75.913 18.4345C76.6082 19.0529 77.5351 19.4197 78.5394 19.7098L81.1076 20.4635C81.7257 20.6373 82.1891 20.8692 82.5559 21.2168C82.9035 21.5262 83.0773 21.9512 83.0773 22.3958C83.0773 22.8786 82.9035 23.4199 82.3821 23.8064C81.822 24.2314 80.8372 24.4441 80.0261 24.4441C78.9642 24.4441 77.8055 24.0769 77.1875 23.188C77.0239 22.9916 76.8882 22.7606 76.7757 22.5054C76.5138 21.911 75.9004 21.4976 75.2751 21.6677C74.6947 21.8256 74.3339 22.4227 74.5455 22.9879C74.7543 23.5459 75.0374 24.0978 75.4303 24.5986C76.531 25.9703 78.1144 26.492 79.949 26.492C81.3586 26.492 82.6331 26.2989 83.6566 25.5838C84.6994 24.8883 85.3754 23.6515 85.3754 22.4536C85.3754 21.3716 84.9311 20.3861 84.1393 19.6324C83.502 19.0333 82.7489 18.6468 81.6098 18.3185L79.1572 17.6034C78.4428 17.3911 77.7476 17.1206 77.4387 16.7919C77.207 16.5407 77.0716 16.2317 77.0716 15.8838C77.0716 15.3428 77.3808 14.7822 77.9406 14.4732C78.4236 14.1834 79.08 14.0482 79.7752 14.0482C80.4512 14.0482 81.1076 14.2798 81.6098 14.5891C82.0296 14.839 82.3361 15.1487 82.588 15.5229C82.9098 16.0001 83.4676 16.2942 84.0214 16.1433Z" fill="white"/>
<path fill-rule="evenodd" clip-rule="evenodd" d="M101.174 19.2315H97.3934V25.4238C97.3934 26.029 96.9048 26.5191 96.3023 26.5191C95.6995 26.5191 95.2112 26.029 95.2112 25.4238V19.2315H91.2351C90.5972 19.2315 90.0801 18.7124 90.0801 18.0721C90.0801 17.4318 90.5972 16.9127 91.2351 16.9127H101.174C101.811 16.9127 102.329 17.4318 102.329 18.0721C102.329 18.7124 101.811 19.2315 101.174 19.2315Z" fill="white"/>
<path fill-rule="evenodd" clip-rule="evenodd" d="M91.2351 12.3215C90.5972 12.3215 90.0801 12.8406 90.0801 13.4809C90.0801 14.1212 90.5972 14.6403 91.2351 14.6403H101.174C101.811 14.6403 102.329 14.1212 102.329 13.4809C102.329 12.8406 101.811 12.3215 101.174 12.3215H91.2351Z" fill="white"/>
<path fill-rule="evenodd" clip-rule="evenodd" d="M106.957 13.4396C106.957 12.8222 107.445 12.3215 108.048 12.3215C108.651 12.3215 109.139 12.8222 109.139 13.4396V25.4058C109.139 26.0235 108.651 26.5239 108.048 26.5239C107.445 26.5239 106.957 26.0235 106.957 25.4058V13.4396Z" fill="white"/>
<path fill-rule="evenodd" clip-rule="evenodd" d="M125.515 21.7923C124.93 21.6235 124.332 21.9704 124.031 22.5014C123.949 22.6453 123.86 22.7842 123.763 22.9175C122.991 23.922 121.736 24.4441 120.442 24.4245C119.148 24.4441 117.893 23.922 117.159 22.9175C116.367 21.9126 116.136 20.5598 116.136 19.2459C116.136 17.932 116.367 16.56 117.159 15.5747C117.893 14.5699 119.148 14.0482 120.442 14.0482C121.736 14.0482 122.991 14.5699 123.763 15.5747C123.91 15.7618 124.036 15.9662 124.144 16.1835C124.402 16.7009 124.932 17.0647 125.5 16.9667C126.158 16.8531 126.579 16.1825 126.298 15.5747C126.083 15.1125 125.817 14.6599 125.482 14.2412C124.285 12.7535 122.431 11.9999 120.442 11.9999C118.472 11.9999 116.619 12.7339 115.421 14.2412C114.282 15.6325 113.838 17.3718 113.818 19.2459C113.818 21.0623 114.263 22.8015 115.421 24.2314C116.58 25.6998 118.434 26.492 120.442 26.492C122.373 26.492 124.246 25.758 125.482 24.2314C125.755 23.8878 125.985 23.5286 126.176 23.1561C126.46 22.6015 126.112 21.9645 125.515 21.7923Z" fill="white"/>
<path fill-rule="evenodd" clip-rule="evenodd" d="M131.062 13.4809C131.062 12.8406 131.579 12.3215 132.217 12.3215H138.845C139.483 12.3215 140 12.8406 140 13.4809C140 14.1212 139.483 14.6403 138.845 14.6403H132.217C131.579 14.6403 131.062 14.1212 131.062 13.4809Z" fill="white"/>
<path fill-rule="evenodd" clip-rule="evenodd" d="M131.062 25.3718C131.062 24.7315 131.579 24.2124 132.217 24.2124H138.845C139.483 24.2124 140 24.7315 140 25.3718C140 26.0121 139.483 26.5312 138.845 26.5312H132.217C131.579 26.5312 131.062 26.0121 131.062 25.3718Z" fill="white"/>
<path fill-rule="evenodd" clip-rule="evenodd" d="M131.062 19.4034C131.062 18.7631 131.579 18.244 132.217 18.244H138.845C139.483 18.244 140 18.7631 140 19.4034C140 20.0437 139.483 20.5628 138.845 20.5628H132.217C131.579 20.5628 131.062 20.0437 131.062 19.4034Z" fill="white"/>
</svg>
